HIERARCHY
ROOT Hips
{
  OFFSET 13.6774 106.653 -34.4427
  CHANNELS 6 Xposition Yposition Zposition Zrotation Xrotation Yrotation
  JOINT ToSpine
  {
    OFFSET -2.69724 7.43032 -0.144315
    CHANNELS 3 Zrotation Xrotation Yrotation
    JOINT Spine
    {
      OFFSET -0.0310711 10.7595 1.96963
      CHANNELS 3 Zrotation Xrotation Yrotation
      JOINT Spine1
      {
        OFFSET 19.9056 3.91189 0.764692
        CHANNELS 3 Zrotation Xrotation Yrotation
        JOINT Neck
        {
          OFFSET 25.9749 7.03908 -0.130764
          CHANNELS 3 Zrotation Xrotation Yrotation
          JOINT Head
          {
            OFFSET 9.52751 0.295786 -0.907742
            CHANNELS 3 Zrotation Xrotation Yrotation
            End Site
            {
              OFFSET 16.4037 0.713936 2.7358
            }
          }
        }
        JOINT LeftShoulder
        {
          OFFSET 17.7449 4.33886 11.7777
          CHANNELS 3 Zrotation Xrotation Yrotation
          JOINT LeftArm
          {
            OFFSET 0.911315 1.27913 9.80584
            CHANNELS 3 Zrotation Xrotation Yrotation
            JOINT LeftForeArm
            {
              OFFSET 28.6126 1.18197 -3.53199
              CHANNELS 3 Zrotation Xrotation Yrotation
              JOINT LeftHand
              {
                OFFSET 27.5088 0.0218783 0.327423
                CHANNELS 3 Zrotation Xrotation Yrotation
                End Site
                {
                  OFFSET 18.6038 -0.000155887 0.382096
                }
              }
            }
          }
        }
        JOINT RightShoulder
        {
          OFFSET 17.1009 2.89543 -12.2328
          CHANNELS 3 Zrotation Xrotation Yrotation
          JOINT RightArm
          {
            OFFSET 1.4228 0.178766 -10.211
            CHANNELS 3 Zrotation Xrotation Yrotation
            JOINT RightForeArm
            {
              OFFSET 28.733 1.87905 2.64907
              CHANNELS 3 Zrotation Xrotation Yrotation
              JOINT RightHand
              {
                OFFSET 27.4588 0.290562 -0.101845
                CHANNELS 3 Zrotation Xrotation Yrotation
                End Site
                {
                  OFFSET 17.8396 -0.255518 -0.000602873
                }
              }
            }
          }
        }
      }
    }
  }
  JOINT LeftUpLeg
  {
    OFFSET -5.61296 -2.22332 -10.2353
    CHANNELS 3 Zrotation Xrotation Yrotation
    JOINT LeftLeg
    {
      OFFSET 2.56703 -44.7417 -7.93097
      CHANNELS 3 Zrotation Xrotation Yrotation
      JOINT LeftFoot
      {
        OFFSET 3.16933 -46.5642 -3.96578
        CHANNELS 3 Zrotation Xrotation Yrotation
        JOINT LeftToeBase
        {
          OFFSET 0.346054 -6.02161 12.8035
          CHANNELS 3 Zrotation Xrotation Yrotation
          End Site
          {
            OFFSET 0.134235 -1.35082 5.13018
          }
        }
      }
    }
  }
  JOINT RightUpLeg
  {
    OFFSET -5.7928 -1.72406 10.6446
    CHANNELS 3 Zrotation Xrotation Yrotation
    JOINT RightLeg
    {
      OFFSET -2.57161 -44.7178 -7.85259
      CHANNELS 3 Zrotation Xrotation Yrotation
      JOINT RightFoot
      {
        OFFSET -3.10148 -46.5936 -4.03391
        CHANNELS 3 Zrotation Xrotation Yrotation
        JOINT RightToeBase
        {
          OFFSET -0.0828122 -6.13587 12.8035
          CHANNELS 3 Zrotation Xrotation Yrotation
          End Site
          {
            OFFSET -0.131328 -1.35082 5.13018
          }
        }
      }
    }
  }
}
MOTION
Frames: 7
Frame Time: 0.03333333333333333
0.0000 93.1000 0.0000 50.3084 -32.1951 -30.6377 -70.9524 -0.0106 87.9385 134.9306 67.5817 -48.7399 -2.9212 23.3639 3.0492 -135.6218 39.9650 155.6857 157.1187 79.7550 -113.4925 -0.1025 -11.6832 -24.2743 -75.8328 45.5986 -90.7100 11.5767 8.0235 -53.2176 -0.1813 0.4760 0.1843 -3.1814 7.6827 41.3060 -117.5965 -6.1876 92.3799 12.6422 -4.7279 70.7316 0.1442 0.2396 0.0618 -23.3409 13.4951 99.9327 -11.2662 67.9787 -7.8022 -4.5013 -12.5940 -1.7944 7.0457 -16.1353 15.2868 -7.2934 -9.8233 79.3102 2.6768 60.5876 -5.5170 -14.0315 -15.5815 1.5351 0.9801 -1.0621 -11.4697 
0.0000 93.1000 0.0000 49.0590 -32.3037 -31.1884 -70.9629 0.0163 87.9500 136.8875 66.4645 -50.3922 -3.0932 23.4673 3.0700 -136.3792 40.0448 158.2164 153.0326 79.5974 -109.8792 -0.1960 -11.7927 -24.6597 -76.6202 45.9079 -87.4759 9.3191 8.2119 -47.5741 -0.2018 0.6207 -0.0505 -3.0020 7.9566 40.8937 -115.5496 -7.4755 91.4594 13.3898 -6.0348 69.3151 -0.0752 0.4338 0.0666 -21.8303 13.9894 98.9177 -15.5765 74.2479 -5.3482 -5.1111 -11.4251 -1.7151 7.7602 -17.8429 16.2380 -4.7536 -10.1447 79.1613 4.4507 63.3610 -6.8999 -13.8348 -16.7353 1.3439 1.1924 -1.8845 -12.7638 
0.0000 93.1000 0.0000 48.3957 -32.0972 -32.1690 -70.9667 0.0754 87.9400 139.8722 65.0316 -52.5425 -2.7652 23.3387 3.5580 -137.8785 40.1806 158.0355 148.0825 79.0949 -103.2945 -0.3932 -11.5352 -24.7233 -78.7122 46.8155 -84.4384 8.1991 9.3432 -42.7348 -0.2839 0.9661 -0.1130 -2.8818 7.6860 40.0574 -114.2387 -8.8437 91.4434 12.9906 -6.4816 67.7543 -0.2741 0.7823 -0.1659 -21.0621 14.3885 98.2333 -27.3191 79.4647 6.5595 -5.4237 -9.9750 -1.8342 7.4743 -18.2994 14.8140 -2.0269 -10.3044 80.4218 5.8542 67.0440 -7.9571 -13.1042 -17.2076 1.3181 1.7212 -2.2401 -13.9160 
0.0000 93.1000 0.0000 47.1672 -32.5118 -33.7846 -71.0003 0.2116 87.9406 142.3591 64.4161 -55.3727 -2.7439 22.8299 3.3125 -136.6949 40.1617 157.1067 156.6227 78.9995 -112.8685 -0.9782 -11.5167 -25.0766 -80.4286 47.9872 -82.1235 8.1190 10.6939 -38.4976 0.0171 1.6616 -0.4401 -2.9157 7.7809 40.2263 -112.9076 -9.1044 91.3113 12.6655 -6.0742 66.9575 -0.8664 1.5075 -0.6635 -21.0766 14.4316 95.9598 -55.6567 82.6311 34.6331 -5.7977 -6.2723 -2.1618 8.5052 -19.0288 14.5199 1.1149 -9.5051 80.8809 7.1639 69.7673 -9.0973 -13.5225 -18.4643 1.5429 1.8422 -1.5101 -14.5195 
0.0000 93.1000 0.0000 47.0138 -32.9786 -33.3171 -71.0453 0.1276 87.9847 144.0295 63.4444 -56.3721 -2.7975 22.9973 2.3694 -137.0064 40.3208 156.8780 163.6416 79.3689 -117.0016 -0.4190 -11.2730 -24.1522 -81.0084 47.7935 -77.8881 7.4889 11.0222 -36.2234 -0.2398 1.1770 -0.2383 -2.9438 7.9899 40.7673 -110.8120 -9.0054 92.5463 12.8132 -6.0143 65.6820 -0.6879 0.9529 -0.2598 -21.4694 14.2099 94.9908 -101.1338 83.7089 79.8665 -5.6658 -1.8299 -1.2496 8.4371 -19.1982 10.8370 3.4150 -8.1746 81.6504 8.0263 73.1942 -11.1187 -13.8712 -20.1296 1.0281 2.1354 -2.0179 -15.3383 
0.0000 93.1000 0.0000 46.3729 -33.9833 -34.4767 -71.0776 0.1564 87.9925 145.9129 62.2696 -57.2534 -2.7507 22.9721 2.6156 -138.5893 40.1445 157.7074 166.2220 79.2396 -116.7938 -0.5280 -10.4701 -23.0744 -82.8395 48.6926 -73.6154 7.3802 10.0248 -35.3185 0.1212 1.3162 -0.4757 -2.9632 8.6942 40.8943 -108.5796 -8.8751 92.6458 12.7275 -7.1407 64.5901 -1.0110 1.0848 -0.3022 -22.2140 14.0878 93.8070 -130.1342 82.1249 107.6343 -6.3013 1.8957 -0.7896 6.9949 -16.4352 10.3841 5.2420 -6.7748 81.7111 11.8831 75.7505 -14.0231 -14.2677 -21.2377 0.9205 2.0540 -2.3341 -17.1823 
0.0000 93.1000 0.0000 45.2378 -34.9155 -33.4403 -71.0961 0.1750 88.0019 148.0563 61.3641 -58.0746 -2.6394 23.3895 2.9071 -139.5388 39.9725 159.4854 162.4842 79.2914 -113.6261 -0.5389 -9.5897 -22.7219 -84.4103 49.0073 -69.6254 7.1960 10.1767 -33.6722 0.2357 1.4052 -0.7903 -2.9549 9.3102 40.7920 -107.1737 -7.5195 92.1365 12.7300 -7.9271 62.4255 -1.0397 1.2219 -0.3141 -23.5298 14.3101 92.9635 -141.1776 80.0127 115.8623 -6.5041 3.9161 -0.5292 7.0186 -17.3602 10.9145 7.4365 -5.0271 82.5868 15.1548 79.1208 -18.6852 -13.8377 -21.9835 0.7379 1.7132 -1.2415 -17.9856 
